<?xml version="1.0" standalone="no"?>
<!DOCTYPE svg PUBLIC "-//W3C//DTD SVG 20010904//EN"
 "http://www.w3.org/TR/2001/REC-SVG-20010904/DTD/svg10.dtd">
<svg version="1.0" xmlns="http://www.w3.org/2000/svg"
 width="1000.000000pt" height="1000.000000pt" viewBox="0 0 1000.000000 1000.000000"
 preserveAspectRatio="xMidYMid meet">
<metadata>
Created by potrace 1.14, written by Peter Selinger 2001-2017
</metadata>
<g transform="translate(0.000000,1000.000000) scale(0.100000,-0.100000)"
fill="#000000" stroke="none">
<path d="M4755 9190 c-919 -57 -1759 -393 -2470 -989 -116 -97 -389 -370 -486
-486 -426 -508 -720 -1084 -874 -1709 -161 -657 -161 -1355 0 -2012 154 -625
448 -1201 874 -1709 97 -116 370 -389 486 -486 943 -790 2134 -1128 3345 -948
644 96 1260 344 1800 727 277 197 590 488 803 745 798 967 1119 2214 891 3455
-109 594 -365 1191 -722 1682 -261 358 -614 708 -972 962 -609 432 -1314 692
-2050 757 -174 15 -468 20 -625 11z m690 -414 c455 -57 864 -180 1255 -376
484 -242 926 -600 1265 -1022 93 -117 255 -345 255 -361 0 -4 -1065 -8 -2367
-10 l-2368 -3 -97 -22 c-446 -102 -791 -372 -983 -767 -163 -335 -186 -726
-64 -1086 12 -35 48 -116 81 -180 202 -395 574 -667 1017 -744 71 -13 289 -15
1397 -15 903 0 1321 3 1341 11 40 15 82 57 104 104 45 96 5 206 -93 256 -36
18 -78 19 -1290 19 -808 0 -1284 4 -1338 10 -232 29 -439 130 -603 295 -467
470 -366 1245 208 1587 71 43 162 81 265 111 l75 22 2471 2 2471 3 56 -132
c105 -252 176 -485 226 -741 55 -281 66 -402 66 -737 0 -335 -11 -456 -66
-737 -295 -1516 -1508 -2718 -3028 -2999 -214 -39 -369 -55 -606 -61 -997 -26
-1928 326 -2677 1010 -131 120 -299 303 -416 453 -90 116 -222 308 -222 323 0
8 715 12 2388 14 2652 3 2411 -3 2625 68 536 178 911 661 956 1229 44 560
-250 1092 -750 1359 -99 52 -242 105 -364 132 l-100 23 -1320 4 c-941 2 -1331
0 -1358 -8 -163 -48 -184 -285 -32 -364 40 -21 46 -21 1365 -26 1324 -5 1325
-5 1402 -27 295 -84 517 -262 652 -523 169 -328 148 -715 -57 -1022 -172 -258
-439 -416 -755 -448 -74 -8 -838 -10 -2492 -8 l-2385 3 -47 105 c-66 148 -170
467 -212 650 -254 1111 5 2284 702 3179 362 465 845 854 1367 1102 411 195
859 317 1320 358 143 13 616 5 760 -13z"/>
</g>
</svg>
